<?xml version="1.0" encoding="utf-8"?>
<!-- Generator: Adobe Illustrator 19.1.0, SVG Export Plug-In . SVG Version: 6.00 Build 0)  -->
<svg version="1.1" id="Layer_1" xmlns="http://www.w3.org/2000/svg" xmlns:xlink="http://www.w3.org/1999/xlink" x="0px" y="0px"
	 viewBox="-163.5 280.8 255.1 255.1" style="enable-background:new -163.5 280.8 255.1 255.1;" xml:space="preserve">
<style type="text/css">
	.st0{fill:#066BB3;}
	.st1{fill:#FED500;}
</style>
<g>
	<path class="st0" d="M-35.9,535.9c70.4,0,127.6-57.1,127.6-127.6S34.5,280.8-35.9,280.8c-70.4,0-127.6,57.1-127.6,127.6
		C-163.5,478.8-106.4,535.9-35.9,535.9"/>
</g>
<g>
	<path class="st1" d="M-157.2,448.7c0,0,1,2.9,1.9,5.7c0.6,1.8,2.4,5,2.4,5s65.9,16,114,20.2c65.9,5.9,108.4,1.2,108.4,1.2
		s3.3-4.4,6.7-10.6c5.6-9.9,6.4-14.5,6.4-14.5s-23.9,4-87,6.6C-68.6,465-157.2,448.7-157.2,448.7 M-9.6,431.1h8.8V399h-8.8V431.1z
		 M-23.9,409.9c0,2.1-1.2,3-4,3h-5.5v-6h5.5C-25.2,406.9-23.9,407.8-23.9,409.9 M-14.1,431.1l-7.2-11.4c4.1-1.5,6.2-4.8,6.2-9.9
		c0-7.2-4.3-10.8-12.5-10.8h-14.6v32.1h8.8v-10.4h3.2l5.8,10.4L-14.1,431.1L-14.1,431.1z M-63.2,423.3v-4.6h12.1v-7.1h-12.1v-4.7
		h15.6v-7.8H-72v32.1h24.4v-7.8L-63.2,423.3L-63.2,423.3z M-110.6,421.2c0-6.4-3.3-9.3-11.5-10.1c-4.1-0.4-5.2-1-5.2-2.4
		c0-1.7,1.6-2.6,4.6-2.6c4,0,7.5,1.3,9.7,3.5h0.4v-9c-1.9-1.3-6-2.1-9.9-2.1c-8.6,0-13.5,3.9-13.5,10.7c0,6.2,3.3,9.1,11.5,9.8
		c4.1,0.3,5.3,1,5.3,2.4c0,1.7-1.5,2.6-4.9,2.6c-4.2,0-8.2-1.4-11.2-3.9h-0.4v9c2.6,1.7,6.5,2.5,11.9,2.5
		C-115.3,431.6-110.6,427.9-110.6,421.2 M-75.9,399h-9.2l-7.1,20.5h-0.1l-7.1-20.5h-9.4l12.1,32.1h8.7L-75.9,399z M-76.6,367.5h11.4
		v-5.7h-17.8v23.4h6.4v-8.3h8.8v-5.7h-8.8L-76.6,367.5L-76.6,367.5z M-48.3,369.7c0,1.5-0.9,2.2-2.9,2.2h-4v-4.4h4
		C-49.2,367.5-48.3,368.2-48.3,369.7 M-41.1,385.2l-5.3-8.3c3-1.1,4.6-3.5,4.6-7.2c0-5.2-3.1-7.9-9.1-7.9h-10.7v23.4h6.4v-7.6h2.4
		l4.2,7.6H-41.1z M-24.6,356.7c0,0.8-0.6,1.4-1.4,1.4s-1.4-0.6-1.4-1.4c0-0.8,0.6-1.4,1.4-1.4C-25.2,355.3-24.6,355.9-24.6,356.7
		 M-21.9,356.7c0-2.4-1.8-4.1-4.1-4.1c-2.4,0-4.1,1.8-4.1,4.1c0,2.4,1.8,4.1,4.1,4.1C-23.7,360.9-21.9,359.1-21.9,356.7
		 M-23.4,376.5h-5.4l2.6-7.3h0.1L-23.4,376.5z M-20.2,385.2h6.9l-9.6-23.4h-6.2l-9.6,23.4h6.7l1.2-3.4h9.4L-20.2,385.2z M3.8,385.2
		h7.4v-23.4H5v13.4H4.9l-6.8-13.4h-8.5v23.4h6.2v-15.5h0.1L3.8,385.2z M22.1,431.6c4.7,0,8.2-0.6,11.2-2.1v-17.1H19.2v7.2h5.7v4.1
		c-0.8,0.1-1.5,0.1-2.3,0.1c-5.9,0-9.6-3.3-9.6-8.7c0-5.4,3.7-8.7,9.6-8.7c4.1,0,7.7,1.3,10.4,3.8h0.4v-9.5c-3-1.5-6.5-2.1-11.2-2.1
		C11,398.6,4,404.9,4,415.1C4,425.2,11,431.6,22.1,431.6 M39.4,431.1h24.4v-7.8H48.2v-4.6h12.1v-7.2H48.2v-4.7h15.6V399H39.4
		L39.4,431.1L39.4,431.1z"/>
</g>
</svg>
